<svg width="50" height="50" viewBox="0 0 50 50" fill="none" xmlns="http://www.w3.org/2000/svg">
<circle cx="25" cy="25" r="25" fill="white"/>
<mask id="mask0_53_312" style="mask-type:alpha" maskUnits="userSpaceOnUse" x="0" y="0" width="50" height="50">
<circle cx="25" cy="25" r="25" fill="white"/>
</mask>
<g mask="url(#mask0_53_312)">
<g filter="url(#filter0_d_53_312)">
<path fill-rule="evenodd" clip-rule="evenodd" d="M11.765 12.0587C11.765 13.8372 12.8173 15.3698 14.3332 16.068C13.8147 17.3758 13.5297 18.8016 13.5297 20.2939C13.5297 23.5438 14.8812 26.478 17.0529 28.5652C8.78646 31.7163 2.94141 39.4672 2.94141 48.5293C2.94141 60.3872 12.9492 69.9999 25.2943 69.9999C37.6395 69.9999 47.6473 60.3872 47.6473 48.5293C47.6473 39.3119 41.6002 31.451 33.1088 28.4073C35.186 26.3313 36.4709 23.4627 36.4709 20.2939C36.4709 18.8765 36.2138 17.5192 35.7437 16.2659C37.5294 15.7013 38.8238 14.0312 38.8238 12.0587C38.8238 9.62219 36.8485 7.64697 34.412 7.64697C32.6469 7.64697 31.1239 8.68354 30.4186 10.1812C28.8049 9.31477 26.96 8.82332 25.0003 8.82332C23.2273 8.82332 21.5483 9.22558 20.0495 9.9438C19.3004 8.57513 17.847 7.64697 16.1767 7.64697C13.7402 7.64697 11.765 9.62219 11.765 12.0587Z" fill="#BA825C"/>
</g>
<circle cx="27.6468" cy="17.6473" r="0.588235" fill="#472B17"/>
<circle cx="22.3529" cy="17.6473" r="0.588235" fill="#472B17"/>
<path d="M25.8819 19.7061C25.8819 20.1934 25.4869 20.5884 24.9995 20.5884C24.5122 20.5884 24.1172 20.1934 24.1172 19.7061C24.1172 19.2188 24.5122 18.8237 24.9995 18.8237C25.4869 18.8237 25.8819 19.2188 25.8819 19.7061Z" fill="#472B17"/>
<path fill-rule="evenodd" clip-rule="evenodd" d="M25.0095 19.794C25.0865 19.7954 25.1607 19.8147 25.227 19.8485C25.3585 19.9156 25.4592 20.04 25.4904 20.196C25.5775 20.6314 25.8066 21.1639 26.1565 21.4524C26.319 21.5865 26.5031 21.6653 26.724 21.6691C26.9511 21.6731 27.2637 21.5985 27.6763 21.3407C27.9105 21.1943 28.2189 21.2655 28.3653 21.4997C28.5117 21.7338 28.4405 22.0423 28.2063 22.1887C27.6777 22.519 27.1766 22.6773 26.7064 22.669C26.23 22.6606 25.8332 22.482 25.5202 22.2239C25.3123 22.0525 25.1404 21.8457 25 21.626C24.8595 21.8457 24.6876 22.0524 24.4797 22.2239C24.1668 22.482 23.7699 22.6606 23.2935 22.669C22.8234 22.6772 22.3223 22.519 21.7937 22.1886C21.5595 22.0423 21.4883 21.7338 21.6347 21.4996C21.781 21.2655 22.0895 21.1943 22.3237 21.3406C22.7362 21.5985 23.0489 21.6731 23.276 21.6691C23.4969 21.6652 23.6809 21.5865 23.8435 21.4524C24.1933 21.1639 24.4225 20.6313 24.5095 20.196C24.5578 19.9549 24.7719 19.7892 25.0095 19.794Z" fill="#472B17"/>
</g>
<defs>
<filter id="filter0_d_53_312" x="-1.05859" y="7.64697" width="52.7061" height="70.353" filterUnits="userSpaceOnUse" color-interpolation-filters="sRGB">
<feFlood flood-opacity="0" result="BackgroundImageFix"/>
<feColorMatrix in="SourceAlpha" type="matrix" values="0 0 0 0 0 0 0 0 0 0 0 0 0 0 0 0 0 0 127 0" result="hardAlpha"/>
<feOffset dy="4"/>
<feGaussianBlur stdDeviation="2"/>
<feComposite in2="hardAlpha" operator="out"/>
<feColorMatrix type="matrix" values="0 0 0 0 0 0 0 0 0 0 0 0 0 0 0 0 0 0 0.25 0"/>
<feBlend mode="normal" in2="BackgroundImageFix" result="effect1_dropShadow_53_312"/>
<feBlend mode="normal" in="SourceGraphic" in2="effect1_dropShadow_53_312" result="shape"/>
</filter>
</defs>
</svg>
